<?xml version="1.0" encoding="UTF-8" standalone="no"?>
<!DOCTYPE svg PUBLIC "-//W3C//DTD SVG 20010904//EN"
              "http://www.w3.org/TR/2001/REC-SVG-20010904/DTD/svg10.dtd">

<svg xmlns="http://www.w3.org/2000/svg"
     width="11.1111in" height="11.1111in"
     viewBox="0 0 800 800">
     <path id="dirt1"
        fill="#5b5941" stroke="#5b5941" stroke-width="0"
        d="M 0.00,0.00
           C 0.00,0.00 0.00,800.00 0.00,800.00
             0.00,800.00 800.00,800.00 800.00,800.00
             800.00,800.00 800.00,0.00 800.00,0.00
             800.00,0.00 0.00,0.00 0.00,0.00 Z
           M 393.10,399.74
           C 397.63,399.92 398.67,401.84 402.00,404.72
             404.04,406.49 407.88,409.45 408.83,411.95
             410.03,415.09 407.34,415.71 404.98,416.23
             404.98,416.23 391.00,418.42 391.00,418.42
             389.22,418.64 386.32,419.22 385.12,417.40
             383.70,415.21 387.02,408.31 388.02,406.00
             389.51,402.54 389.78,401.57 393.10,399.74 Z" />
<path id="crack1"
        fill="black" stroke="black" stroke-width="0"
        d="M 436.00,175.00
           C 442.54,174.46 443.31,171.52 446.22,166.00
             450.69,157.53 458.77,145.23 459.00,136.00
             451.44,136.24 451.83,138.90 447.75,147.00
             443.26,155.93 436.26,164.70 436.00,175.00 Z
           M 311.00,164.00
           C 311.57,171.93 317.49,178.47 321.58,185.00
             321.58,185.00 348.81,228.00 348.81,228.00
             350.95,231.44 356.87,242.01 360.18,243.40
             361.80,244.08 364.25,243.98 366.00,244.00
             366.00,244.00 366.00,238.00 366.00,238.00
             360.86,235.03 357.28,227.02 354.00,222.00
             354.00,222.00 328.66,182.00 328.66,182.00
             326.37,178.48 319.56,166.75 316.68,165.02
             314.91,163.96 312.97,164.07 311.00,164.00 Z
           M 516.00,234.00
           C 512.88,247.66 504.12,265.79 504.00,279.00
             511.15,278.40 511.04,274.24 512.98,268.00
             515.93,258.50 521.91,243.34 522.00,234.00
             522.00,234.00 516.00,234.00 516.00,234.00 Z
           M 560.00,268.00
           C 560.00,268.00 560.00,275.00 560.00,275.00
             567.67,274.74 569.95,271.70 576.00,267.42
             582.79,262.62 587.69,261.90 588.00,253.00
             578.30,253.75 569.46,264.38 560.00,268.00 Z
           M 346.00,280.00
           C 346.00,280.00 348.00,295.00 348.00,295.00
             348.00,295.00 355.00,295.00 355.00,295.00
             355.00,295.00 352.00,280.00 352.00,280.00
             352.00,280.00 346.00,280.00 346.00,280.00 Z
           M 451.00,322.00
           C 453.73,323.79 455.63,325.57 459.01,323.96
             461.56,322.75 465.69,318.26 468.00,316.17
             468.00,316.17 486.00,299.00 486.00,299.00
             491.01,294.00 493.77,293.23 494.00,286.00
             485.16,286.26 483.27,291.34 477.00,296.87
             477.00,296.87 469.00,302.55 469.00,302.55
             463.94,306.38 453.63,316.43 451.00,322.00 Z
           M 66.00,290.00
           C 66.00,290.00 66.00,296.00 66.00,296.00
             73.35,296.66 80.07,300.00 87.00,302.33
             87.00,302.33 128.00,316.33 128.00,316.33
             136.25,319.09 142.17,321.92 151.00,322.00
             150.87,320.43 150.94,318.88 149.98,317.51
             148.46,315.35 135.22,311.10 132.00,310.00
             132.00,310.00 92.00,296.33 92.00,296.33
             82.53,293.17 76.14,290.03 66.00,290.00 Z
           M 536.00,298.00
           C 536.00,298.00 536.00,364.00 536.00,364.00
             536.00,364.00 542.00,364.00 542.00,364.00
             542.00,364.00 542.00,298.00 542.00,298.00
             542.00,298.00 536.00,298.00 536.00,298.00 Z
           M 434.00,368.00
           C 434.69,376.48 435.55,382.23 434.86,390.99
             434.67,393.37 434.30,397.87 433.01,399.83
             431.18,402.61 426.04,404.79 423.00,406.14
             421.06,407.01 415.40,409.86 413.51,409.38
             412.11,409.02 408.30,404.93 406.96,403.73
             402.25,399.50 395.86,393.00 390.00,391.00
             390.00,391.00 378.00,398.86 378.00,398.86
             378.00,398.86 357.00,410.00 357.00,410.00
             357.00,410.00 361.06,414.19 361.06,414.19
             361.06,414.19 369.00,411.58 369.00,411.58
             369.00,411.58 385.00,403.00 385.00,403.00
             385.00,403.00 378.00,421.00 378.00,421.00
             378.00,421.00 386.00,422.87 386.00,422.87
             386.00,422.87 413.00,418.44 413.00,418.44
             413.00,418.44 426.00,411.42 426.00,411.42
             426.00,411.42 438.83,403.61 438.83,403.61
             438.83,403.61 440.42,394.00 440.42,394.00
             440.42,394.00 441.08,377.00 441.08,377.00
             441.08,377.00 439.26,369.82 439.26,369.82
             439.26,369.82 434.00,368.00 434.00,368.00 Z
           M 394.00,401.00
           C 394.00,401.00 408.00,414.00 408.00,414.00
             408.00,414.00 386.00,417.00 386.00,417.00
             386.00,417.00 394.00,401.00 394.00,401.00 Z
           M 386.00,402.00
           C 386.00,402.00 386.00,403.00 386.00,403.00
             386.00,403.00 385.00,402.00 385.00,402.00
             385.00,402.00 386.00,402.00 386.00,402.00 Z
           M 319.00,442.00
           C 319.00,442.00 310.00,459.16 310.00,459.16
             311.67,459.35 313.17,459.87 314.90,459.16
             318.20,458.25 323.13,449.40 322.27,446.04
             321.75,444.01 320.45,443.25 319.00,442.00 Z
           M 303.00,507.00
           C 304.34,516.50 313.77,546.47 317.55,556.00
             321.82,566.77 319.97,570.55 330.00,572.00
             330.00,572.00 321.00,547.00 321.00,547.00
             321.00,547.00 313.86,523.00 313.86,523.00
             311.71,515.50 311.68,508.02 303.00,507.00 Z
           M 311.00,637.00
           C 316.36,633.16 324.20,625.93 327.00,620.00
             324.73,620.02 322.14,619.92 320.00,620.74
             316.77,621.97 309.39,628.50 309.02,632.00
             308.80,634.08 310.00,635.40 311.00,637.00 Z
           M 267.00,659.00
           C 267.00,659.00 265.00,653.00 265.00,653.00
             265.00,653.00 232.00,658.31 232.00,658.31
             228.35,660.12 224.01,665.84 221.00,669.00
             221.00,669.00 196.28,696.00 196.28,696.00
             196.28,696.00 173.60,721.00 173.60,721.00
             172.17,722.74 167.02,729.80 173.05,729.80
             175.83,729.80 179.27,724.95 181.09,723.00
             181.09,723.00 202.09,700.00 202.09,700.00
             202.09,700.00 225.97,674.00 225.97,674.00
             228.71,671.10 232.69,665.73 236.00,664.02
             236.00,664.02 267.00,659.00 267.00,659.00 Z" />

</svg>
