<?xml version="1.0" encoding="UTF-8" standalone="no"?>
<!DOCTYPE svg PUBLIC "-//W3C//DTD SVG 20010904//EN"
              "http://www.w3.org/TR/2001/REC-SVG-20010904/DTD/svg10.dtd">

<svg xmlns="http://www.w3.org/2000/svg"
     width="11.1111in" height="11.1111in"
     viewBox="0 0 800 800">
<path id="dirt2"
        fill="#5b5941" stroke="#5b5941" stroke-width="4"
        d="M 0.00,0.00
           C 0.00,0.00 0.00,800.00 0.00,800.00
             0.00,800.00 800.00,800.00 800.00,800.00
             800.00,800.00 800.00,0.00 800.00,0.00
             800.00,0.00 0.00,0.00 0.00,0.00 Z
           M 521.00,234.00
           C 521.00,234.00 495.00,224.60 495.00,224.60
             487.56,221.65 483.26,221.14 477.58,214.96
             477.58,214.96 451.85,186.00 451.85,186.00
             448.95,182.71 443.44,177.57 443.33,173.00
             443.25,169.86 447.07,161.32 448.40,158.00
             450.04,153.91 454.39,142.22 456.70,139.30
             458.59,136.90 463.40,133.63 466.00,131.55
             466.00,131.55 484.00,117.00 484.00,117.00
             494.64,108.49 498.87,102.02 513.00,102.00
             513.00,102.00 544.00,102.00 544.00,102.00
             546.36,102.00 550.35,101.62 551.99,103.60
             553.94,105.95 553.93,113.90 554.01,117.00
             554.01,117.00 556.16,146.00 556.16,146.00
             556.16,146.00 556.16,156.00 556.16,156.00
             557.23,161.46 564.99,178.84 567.58,185.00
             574.23,200.86 575.40,207.37 584.28,223.00
             584.28,223.00 593.68,241.00 593.68,241.00
             595.21,244.42 596.55,247.36 593.68,250.48
             591.62,252.72 580.32,259.21 577.00,261.20
             577.00,261.20 554.00,274.60 554.00,274.60
             542.79,281.25 540.03,285.57 527.00,282.37
             523.05,281.40 509.04,279.47 507.69,275.72
             506.74,273.08 509.68,266.72 510.68,264.00
             510.68,264.00 521.00,234.00 521.00,234.00 Z
           M 204.00,292.56
           C 209.46,292.53 224.26,295.33 230.00,296.65
             232.68,297.27 237.38,298.06 238.98,300.43
             241.34,303.92 238.53,321.07 238.07,326.00
             238.07,326.00 235.27,344.00 235.27,344.00
             232.84,360.52 229.81,383.59 230.00,400.00
             230.11,408.92 233.38,420.86 234.92,430.00
             235.32,432.39 237.02,439.38 234.40,440.83
             231.21,442.60 225.03,434.09 222.99,432.00
             222.99,432.00 194.02,401.00 194.02,401.00
             194.02,401.00 169.87,373.00 169.87,373.00
             167.05,369.72 157.51,359.04 155.99,356.00
             154.34,352.69 153.36,341.28 152.85,337.00
             152.43,333.55 150.48,322.89 151.60,320.21
             153.00,316.88 161.64,313.44 165.00,311.75
             173.36,307.54 196.47,294.34 204.00,292.56 Z
           M 450.94,321.44
           C 456.21,322.38 454.63,325.87 453.63,330.00
             453.63,330.00 447.63,355.00 447.63,355.00
             447.63,355.00 441.15,383.00 441.15,383.00
             440.18,388.06 442.32,389.79 441.15,392.74
             440.69,394.83 438.79,395.42 437.11,399.05
             437.11,399.05 429.15,424.00 429.15,424.00
             426.03,435.39 420.94,449.77 407.00,450.91
             391.85,452.15 368.01,440.38 354.00,434.14
             350.09,432.40 339.02,427.80 337.64,423.90
             336.73,421.32 338.16,417.56 338.85,415.00
             338.85,415.00 343.35,397.00 343.35,397.00
             343.35,397.00 352.95,355.00 352.95,355.00
             354.36,351.31 357.09,347.40 359.19,344.00
             365.00,334.63 366.23,329.02 378.00,329.00
             378.00,329.00 382.00,329.00 382.00,329.00
             382.00,329.00 392.00,329.96 392.00,329.96
             392.00,329.96 407.00,329.96 407.00,329.96
             421.78,329.93 436.37,323.34 450.94,321.44 Z
           M 597.94,500.74
           C 598.27,500.76 599.74,500.16 600.98,501.62
             602.52,503.43 602.70,512.75 601.89,515.00
             601.89,515.00 586.99,541.00 586.99,541.00
             585.55,544.84 586.14,548.99 585.96,553.00
             585.96,553.00 585.13,561.00 585.13,561.00
             585.13,561.00 585.13,576.00 585.13,576.00
             584.91,583.62 582.11,600.47 585.13,607.00
             585.13,607.00 601.87,630.00 601.87,630.00
             604.17,633.07 608.50,638.10 608.57,642.00
             608.62,645.04 605.66,650.18 604.25,653.00
             604.25,653.00 592.25,677.00 592.25,677.00
             589.38,682.74 583.29,697.92 577.96,700.57
             577.96,700.57 549.00,707.42 549.00,707.42
             549.00,707.42 507.00,716.81 507.00,716.81
             503.60,717.10 496.73,715.77 493.00,715.28
             493.00,715.28 464.00,711.27 464.00,711.27
             464.00,711.27 438.00,707.73 438.00,707.73
             435.61,707.38 430.67,707.24 429.69,704.69
             428.90,702.62 430.78,697.24 431.42,695.00
             431.42,695.00 438.86,670.00 438.86,670.00
             438.86,670.00 454.06,619.00 454.06,619.00
             454.06,619.00 468.75,588.00 468.75,588.00
             468.75,588.00 478.21,569.06 478.21,569.06
             481.89,563.29 492.73,563.23 499.00,562.00
             509.29,559.97 515.27,557.24 525.00,554.00
             525.00,554.00 543.00,547.74 543.00,547.74
             546.74,545.83 553.48,539.85 557.00,536.92
             557.00,536.92 581.00,515.96 581.00,515.96
             585.91,511.26 592.00,503.57 597.94,500.74 Z" />
  <path id="crack2"
        fill="black" stroke="black" stroke-width="0"
        d="M 563.00,85.00
           C 563.00,85.00 563.00,91.00 563.00,91.00
             563.00,91.00 568.72,90.43 568.72,90.43
             568.72,90.43 576.00,84.00 576.00,84.00
             576.00,84.00 590.00,70.00 590.00,70.00
             590.00,70.00 603.09,57.30 603.09,57.30
             603.09,57.30 622.00,52.13 622.00,52.13
             622.00,52.13 660.00,42.87 660.00,42.87
             660.00,42.87 676.00,38.88 676.00,38.88
             676.00,38.88 683.01,36.27 683.01,36.27
             683.01,36.27 684.00,31.00 684.00,31.00
             684.00,31.00 659.00,36.13 659.00,36.13
             659.00,36.13 624.00,44.63 624.00,44.63
             624.00,44.63 598.00,51.73 598.00,51.73
             598.00,51.73 573.00,76.00 573.00,76.00
             573.00,76.00 563.00,85.00 563.00,85.00 Z
           M 315.00,56.00
           C 315.59,63.28 319.31,64.21 325.00,68.00
             325.00,68.00 346.00,82.00 346.00,82.00
             348.66,83.78 354.51,87.05 355.46,90.09
             356.33,92.87 352.68,102.79 351.72,106.00
             351.72,106.00 340.86,142.00 340.86,142.00
             339.91,145.30 336.80,153.88 337.40,156.87
             338.07,160.15 341.25,160.57 344.00,161.21
             344.00,161.21 361.00,164.88 361.00,164.88
             361.00,164.88 413.00,175.88 413.00,175.88
             421.95,177.94 432.17,181.67 441.00,178.00
             443.85,184.15 453.97,194.54 458.93,200.00
             464.47,206.11 473.32,217.10 479.42,221.75
             483.16,224.60 491.37,227.32 496.00,229.05
             501.66,231.16 510.47,235.00 516.00,236.00
             514.47,242.70 505.85,268.01 502.35,273.00
             498.89,277.95 479.78,294.20 474.00,299.28
             469.63,303.13 458.39,314.14 454.00,316.24
             450.86,317.73 439.08,320.13 435.00,321.00
             411.66,325.99 418.38,326.04 394.00,326.00
             394.00,326.00 379.00,325.00 379.00,325.00
             375.98,324.97 370.64,324.66 368.04,326.02
             363.72,328.29 356.80,340.44 353.95,345.00
             347.31,355.62 347.37,361.06 344.79,373.00
             344.79,373.00 337.13,406.00 337.13,406.00
             337.13,406.00 332.58,422.00 332.58,422.00
             332.58,422.00 311.26,448.00 311.26,448.00
             308.82,451.84 307.77,458.42 306.63,463.00
             304.86,470.07 300.30,487.65 300.00,494.00
             300.00,494.00 262.00,464.42 262.00,464.42
             257.51,460.92 245.44,452.28 242.93,447.99
             241.16,444.94 237.73,424.79 236.92,420.00
             236.92,420.00 233.71,401.00 233.71,401.00
             233.39,388.16 237.19,356.48 239.27,343.00
             241.15,330.82 243.69,318.36 243.99,306.00
             244.05,303.29 244.41,298.76 242.40,296.72
             240.59,294.88 234.63,293.77 232.00,293.21
             226.33,292.00 207.78,288.01 203.00,288.78
             198.30,289.53 188.40,295.09 184.00,297.58
             184.00,297.58 161.00,309.25 161.00,309.25
             161.00,309.25 151.00,314.21 151.00,314.21
             147.25,315.12 136.22,310.41 132.00,309.00
             132.00,309.00 85.00,292.67 85.00,292.67
             81.00,291.33 71.27,288.83 69.60,284.87
             68.94,283.31 69.01,280.70 69.00,279.00
             69.00,279.00 69.00,273.00 69.00,273.00
             69.00,273.00 67.37,254.00 67.37,254.00
             67.37,254.00 51.00,219.00 51.00,219.00
             49.48,215.48 44.43,203.82 41.61,202.02
             40.12,201.07 38.67,201.14 37.00,201.00
             37.24,210.55 42.68,218.60 46.74,227.00
             46.74,227.00 61.37,259.00 61.37,259.00
             62.25,262.17 62.99,272.42 63.00,276.00
             63.01,279.68 62.78,289.50 64.98,292.30
             66.76,294.57 78.62,297.82 82.00,299.05
             82.00,299.05 128.00,315.05 128.00,315.05
             131.79,316.44 143.23,319.99 145.49,322.42
             148.86,326.04 149.12,340.07 149.16,345.27
             149.19,349.35 149.57,348.64 150.55,352.17
             153.13,361.47 155.67,362.66 162.00,370.00
             162.00,370.00 187.45,399.17 187.45,399.17
             187.45,399.17 213.83,428.00 213.83,428.00
             213.83,428.00 240.11,456.00 240.11,456.00
             240.11,456.00 253.00,466.21 253.00,466.21
             253.00,466.21 282.00,489.00 282.00,489.00
             285.57,491.81 297.23,500.53 299.49,503.29
             302.13,506.51 306.50,521.29 307.86,526.00
             311.08,537.19 320.88,563.06 321.00,573.00
             321.00,573.00 321.00,590.00 321.00,590.00
             321.00,590.00 321.96,600.00 321.96,600.00
             321.96,600.00 321.96,611.00 321.96,611.00
             321.99,615.15 322.49,618.23 318.85,621.04
             318.85,621.04 303.00,629.26 303.00,629.26
             303.00,629.26 282.00,641.28 282.00,641.28
             277.35,643.93 265.41,651.62 261.00,652.61
             253.54,654.29 239.13,652.65 233.00,656.60
             233.00,656.60 210.91,680.00 210.91,680.00
             210.91,680.00 182.91,710.00 182.91,710.00
             182.91,710.00 168.00,726.00 168.00,726.00
             168.00,726.00 174.00,730.00 174.00,730.00
             177.77,724.73 182.52,720.71 186.91,716.00
             186.91,716.00 215.83,685.00 215.83,685.00
             215.83,685.00 228.83,671.00 228.83,671.00
             231.56,667.98 234.41,663.94 238.00,661.98
             243.69,658.88 258.87,660.06 266.00,657.78
             266.00,657.78 306.00,635.30 306.00,635.30
             309.89,633.17 325.29,626.25 326.98,623.61
             328.22,621.66 328.00,618.27 327.96,616.00
             327.96,616.00 327.96,599.00 327.96,599.00
             327.96,599.00 327.00,589.00 327.00,589.00
             327.00,589.00 327.71,569.00 327.71,569.00
             327.71,569.00 316.66,532.00 316.66,532.00
             316.66,532.00 308.98,508.00 308.98,508.00
             308.12,505.24 305.81,499.45 305.68,497.00
             305.50,493.96 308.71,481.66 309.63,478.00
             309.63,478.00 315.76,454.00 315.76,454.00
             317.34,450.70 326.39,440.28 329.29,437.00
             330.92,435.15 333.58,432.11 336.00,431.41
             339.90,430.29 352.88,437.80 357.00,439.69
             373.38,447.21 403.64,462.75 419.99,449.61
             429.80,441.73 431.04,430.13 434.67,419.00
             441.51,398.02 447.13,376.58 451.79,355.00
             451.79,355.00 457.12,333.00 457.12,333.00
             457.95,329.46 458.42,325.03 460.56,322.09
             461.96,320.16 470.68,312.59 473.00,310.58
             473.00,310.58 493.00,292.72 493.00,292.72
             495.99,290.09 502.47,283.53 506.00,282.47
             508.65,281.68 515.03,283.57 518.00,284.21
             521.42,284.95 532.18,286.79 533.98,289.43
             535.47,291.62 534.89,298.04 535.17,301.00
             535.17,301.00 536.00,335.00 536.00,335.00
             536.00,335.00 536.91,345.00 536.91,345.00
             536.91,345.00 538.84,368.00 538.84,368.00
             539.31,372.41 539.51,379.20 541.70,383.00
             547.43,392.95 568.53,409.83 576.73,420.00
             579.53,423.48 582.60,431.58 584.40,436.00
             584.40,436.00 596.42,467.00 596.42,467.00
             600.46,477.70 599.55,478.74 607.00,479.00
             605.77,471.06 596.09,447.72 592.60,439.00
             589.47,431.18 585.91,420.35 580.67,414.00
             580.67,414.00 558.00,391.00 558.00,391.00
             554.54,387.54 548.96,382.34 546.90,378.00
             545.03,374.06 544.31,361.90 543.92,357.00
             543.92,357.00 542.00,332.00 542.00,332.00
             542.00,332.00 542.00,311.00 542.00,311.00
             542.00,311.00 541.00,296.00 541.00,296.00
             540.98,293.48 540.75,289.38 542.02,287.21
             543.37,284.92 546.74,283.33 549.00,281.99
             549.00,281.99 565.00,272.72 565.00,272.72
             565.00,272.72 589.00,258.58 589.00,258.58
             591.94,256.75 598.02,252.25 601.00,251.80
             601.00,251.80 611.00,251.80 611.00,251.80
             611.00,251.80 642.00,253.21 642.00,253.21
             645.39,253.01 655.58,254.36 657.61,253.21
             659.99,252.33 661.61,248.28 662.75,246.00
             662.75,246.00 672.63,227.18 672.63,227.18
             676.99,221.85 689.40,217.92 691.98,213.67
             693.04,211.93 692.93,209.95 693.00,208.00
             685.01,208.57 668.73,218.03 664.80,225.00
             662.45,229.17 656.32,244.38 653.61,246.23
             651.42,247.73 637.50,247.04 634.00,247.00
             634.00,247.00 624.00,246.04 624.00,246.04
             624.00,246.04 613.00,246.04 613.00,246.04
             609.60,245.99 603.22,246.03 600.41,244.02
             598.32,242.51 596.90,238.38 595.74,236.00
             595.74,236.00 588.15,222.00 588.15,222.00
             578.45,204.99 579.91,204.77 572.99,188.00
             572.99,188.00 560.61,158.00 560.61,158.00
             560.61,158.00 559.00,135.00 559.00,135.00
             559.00,135.00 557.42,109.00 557.42,109.00
             557.06,106.31 557.20,101.67 555.26,99.74
             553.18,97.65 548.76,98.00 546.00,98.00
             536.37,97.98 509.75,97.11 502.00,99.38
             496.91,100.86 489.36,107.71 485.00,111.20
             485.00,111.20 454.39,136.29 454.39,136.29
             450.60,140.52 445.01,155.98 442.60,162.00
             441.00,165.98 439.64,171.32 434.96,172.56
             430.83,173.64 415.09,169.43 410.00,168.40
             410.00,168.40 372.00,160.35 372.00,160.35
             372.00,160.35 344.00,155.00 344.00,155.00
             344.00,155.00 359.02,106.00 359.02,106.00
             360.28,101.91 364.77,89.74 363.39,86.18
             362.33,83.48 358.36,81.25 356.00,79.67
             356.00,79.67 337.00,67.00 337.00,67.00
             330.14,62.42 323.52,56.27 315.00,56.00 Z
           M 72.00,235.00
           C 80.18,234.72 84.08,229.31 90.00,224.05
             90.00,224.05 121.00,196.95 121.00,196.95
             124.98,193.42 132.35,188.11 133.69,183.00
             133.69,183.00 137.72,149.00 137.72,149.00
             138.43,143.25 137.91,140.30 141.25,135.00
             141.25,135.00 148.58,125.00 148.58,125.00
             148.58,125.00 167.12,100.00 167.12,100.00
             171.71,93.77 176.73,88.94 177.00,81.00
             175.16,81.15 173.80,81.10 172.09,82.02
             168.46,83.98 159.78,96.98 156.85,101.00
             156.85,101.00 140.58,123.00 140.58,123.00
             137.87,126.74 134.42,130.50 133.19,135.00
             133.19,135.00 129.16,167.00 129.16,167.00
             128.43,173.86 129.04,178.63 123.94,183.96
             123.94,183.96 86.00,217.28 86.00,217.28
             80.10,222.41 72.67,226.75 72.00,235.00 Z
           M 358.00,236.00
           C 358.00,236.00 342.00,243.69 342.00,243.69
             342.00,243.69 276.00,276.25 276.00,276.25
             276.00,276.25 252.60,288.63 252.60,288.63
             252.60,288.63 251.00,294.00 251.00,294.00
             251.00,294.00 257.00,293.37 257.00,293.37
             257.00,293.37 287.00,279.25 287.00,279.25
             287.00,279.25 338.00,253.75 338.00,253.75
             338.00,253.75 367.00,240.00 367.00,240.00
             366.37,231.25 357.06,222.02 351.88,215.00
             351.88,215.00 323.13,176.00 323.13,176.00
             323.13,176.00 308.73,156.17 308.73,156.17
             307.02,152.41 310.33,143.16 311.37,139.00
             314.43,126.77 319.96,111.30 320.00,99.00
             313.24,99.56 313.97,101.95 312.12,109.00
             312.12,109.00 306.13,132.00 306.13,132.00
             305.10,136.09 299.97,154.16 300.34,156.83
             300.70,159.39 303.09,161.98 304.63,164.01
             304.63,164.01 315.85,179.00 315.85,179.00
             315.85,179.00 358.00,236.00 358.00,236.00 Z
           M 551.00,104.00
           C 551.00,104.00 553.00,135.00 553.00,135.00
             553.00,135.00 554.00,150.00 554.00,150.00
             554.02,162.00 556.97,166.21 561.58,177.00
             561.58,177.00 574.21,209.00 574.21,209.00
             574.21,209.00 588.24,235.00 588.24,235.00
             589.62,237.71 592.93,243.87 592.52,246.82
             592.14,249.62 589.16,251.07 587.00,252.40
             587.00,252.40 572.00,261.28 572.00,261.28
             572.00,261.28 549.00,274.72 549.00,274.72
             544.17,277.47 539.74,280.42 534.00,280.79
             529.47,281.08 514.75,277.08 509.00,276.00
             509.00,276.00 524.00,233.00 524.00,233.00
             524.00,233.00 496.00,222.40 496.00,222.40
             492.89,221.17 485.61,218.65 483.28,217.01
             483.28,217.01 462.93,195.00 462.93,195.00
             459.17,190.86 447.30,178.67 446.33,174.00
             445.32,169.18 450.65,158.87 452.60,154.00
             454.10,150.25 456.27,144.16 458.64,141.09
             458.64,141.09 486.00,118.40 486.00,118.40
             497.03,109.58 500.39,104.02 515.00,104.00
             515.00,104.00 551.00,104.00 551.00,104.00 Z
           M 234.00,439.00
           C 227.64,434.44 209.67,414.75 203.72,408.00
             203.72,408.00 195.17,399.00 195.17,399.00
             195.17,399.00 172.87,373.00 172.87,373.00
             169.63,369.24 160.14,358.78 158.43,355.00
             156.88,351.59 155.36,339.26 154.85,335.00
             154.85,335.00 153.46,322.21 153.46,322.21
             153.95,319.46 156.78,318.39 159.00,317.25
             159.00,317.25 173.00,310.25 173.00,310.25
             173.00,310.25 204.00,294.92 204.00,294.92
             207.47,294.36 219.00,296.80 223.00,297.60
             226.06,298.21 235.23,299.44 237.09,301.72
             238.88,304.13 237.46,310.12 237.09,313.00
             237.09,313.00 233.43,341.00 233.43,341.00
             230.26,359.89 228.44,379.89 227.74,399.00
             227.74,399.00 234.00,439.00 234.00,439.00 Z
           M 452.00,324.00
           C 452.00,324.00 445.65,352.00 445.65,352.00
             445.65,352.00 433.85,401.00 433.85,401.00
             433.85,401.00 429.14,416.00 429.14,416.00
             425.86,427.46 423.38,442.60 411.00,447.77
             404.48,450.50 395.46,448.02 389.00,445.97
             378.75,442.72 348.31,429.28 339.00,424.00
             339.00,424.00 342.63,410.00 342.63,410.00
             342.63,410.00 348.79,383.00 348.79,383.00
             350.99,372.80 352.99,358.77 358.21,350.00
             360.40,346.32 368.03,333.82 371.18,332.02
             373.43,330.75 377.42,330.97 380.00,331.00
             380.00,331.00 390.00,331.96 390.00,331.96
             390.00,331.96 408.00,331.96 408.00,331.96
             408.00,331.96 452.00,324.00 452.00,324.00 Z
           M 604.96,492.00
           C 596.06,492.31 592.52,498.76 586.00,504.42
             586.00,504.42 570.00,519.91 570.00,519.91
             570.00,519.91 545.00,540.71 545.00,540.71
             538.86,545.48 534.96,545.82 528.00,548.42
             528.00,548.42 499.00,557.79 499.00,557.79
             494.49,558.75 480.11,560.80 477.21,562.85
             474.03,565.10 472.11,570.49 470.58,574.00
             470.58,574.00 462.75,590.00 462.75,590.00
             462.75,590.00 450.46,616.00 450.46,616.00
             450.46,616.00 433.14,674.00 433.14,674.00
             433.14,674.00 425.72,699.00 425.72,699.00
             424.99,701.46 423.43,706.16 425.04,708.44
             426.67,710.76 432.32,711.03 435.00,711.42
             435.00,711.42 461.00,715.00 461.00,715.00
             461.00,715.00 504.00,720.91 504.00,720.91
             509.18,721.20 518.67,718.68 524.00,717.37
             524.00,717.37 553.00,710.79 553.00,710.79
             553.00,710.79 575.00,705.87 575.00,705.87
             579.06,704.88 582.37,704.42 585.04,700.87
             585.04,700.87 593.25,685.00 593.25,685.00
             593.25,685.00 607.25,657.00 607.25,657.00
             609.32,652.86 614.40,644.44 613.66,640.00
             613.09,636.61 608.99,631.83 606.87,629.00
             606.87,629.00 589.57,605.00 589.57,605.00
             585.97,597.97 588.90,581.12 589.00,573.00
             589.07,566.91 589.05,549.05 590.70,544.00
             590.70,544.00 604.96,519.00 604.96,519.00
             607.05,513.76 606.05,497.83 604.96,492.00 Z
           M 600.00,502.00
           C 600.00,505.96 600.38,511.35 599.01,515.00
             599.01,515.00 584.50,541.00 584.50,541.00
             584.50,541.00 583.83,553.00 583.83,553.00
             583.83,553.00 583.00,573.00 583.00,573.00
             583.00,573.00 582.04,584.00 582.04,584.00
             582.04,584.00 582.04,599.00 582.04,599.00
             582.00,601.54 581.87,604.60 582.72,607.00
             583.82,610.06 595.37,625.32 598.13,629.00
             600.71,632.45 606.57,638.58 605.81,643.00
             605.45,645.09 600.52,654.45 599.25,657.00
             599.25,657.00 586.25,683.00 586.25,683.00
             584.49,686.50 580.49,695.87 577.61,697.86
             575.50,699.33 570.64,700.04 568.00,700.65
             568.00,700.65 547.00,705.42 547.00,705.42
             547.00,705.42 518.00,712.00 518.00,712.00
             514.48,712.75 508.22,714.59 505.00,714.54
             505.00,714.54 432.00,705.00 432.00,705.00
             432.00,705.00 441.29,670.00 441.29,670.00
             441.29,670.00 456.92,618.00 456.92,618.00
             456.92,618.00 466.25,599.00 466.25,599.00
             466.25,599.00 476.25,578.00 476.25,578.00
             476.25,578.00 481.63,568.73 481.63,568.73
             481.63,568.73 503.00,563.58 503.00,563.58
             503.00,563.58 543.00,550.46 543.00,550.46
             543.00,550.46 558.00,539.08 558.00,539.08
             558.00,539.08 578.00,521.96 578.00,521.96
             578.00,521.96 600.00,502.00 600.00,502.00 Z" />

</svg>
