<?xml version="1.0" encoding="UTF-8" standalone="no"?>
<!DOCTYPE svg PUBLIC "-//W3C//DTD SVG 20010904//EN"
              "http://www.w3.org/TR/2001/REC-SVG-20010904/DTD/svg10.dtd">

<svg xmlns="http://www.w3.org/2000/svg"
     width="5.91667in" height="5.44444in"
     viewBox="0 0 426 392">
  <path id="body"
        fill="#a17453" stroke="#a17453" stroke-width="0"
        d="M 234.00,0.00
           C 240.19,5.47 252.25,7.91 260.00,11.09
             265.35,13.28 286.69,26.59 290.96,30.32
             293.41,32.46 294.93,34.46 296.87,37.00
             296.87,37.00 314.09,62.00 314.09,62.00
             317.38,66.93 322.09,72.75 322.57,79.00
             322.83,82.43 319.45,92.25 315.13,92.01
             313.30,91.91 310.47,89.39 308.96,88.29
             302.74,83.77 299.09,83.78 295.00,77.00
             295.00,77.00 298.00,78.00 298.00,78.00
             295.09,73.48 281.38,67.54 276.00,66.00
             276.00,66.00 290.00,81.00 290.00,81.00
             290.00,81.00 270.00,81.66 270.00,81.66
             270.00,81.66 256.17,72.73 256.17,72.73
             256.17,72.73 250.91,67.53 250.91,67.53
             246.97,64.27 234.92,57.41 230.00,56.00
             230.00,56.00 231.00,58.00 231.00,58.00
             223.54,53.19 217.97,50.75 209.00,50.00
             209.00,50.00 210.00,53.00 210.00,53.00
             210.00,53.00 194.00,47.90 194.00,47.90
             194.00,47.90 183.00,43.44 183.00,43.44
             183.00,43.44 163.00,39.69 163.00,39.69
             163.00,39.69 153.00,36.90 153.00,36.90
             153.00,36.90 136.00,35.00 136.00,35.00
             143.32,41.31 153.18,38.94 163.00,48.00
             147.65,44.50 143.66,37.00 119.00,35.00
             122.58,38.09 125.84,38.53 130.00,40.87
             137.81,45.27 144.76,50.68 150.00,58.00
             133.65,49.25 124.30,40.06 104.00,40.00
             114.21,48.12 135.88,51.17 143.00,71.00
             143.00,71.00 136.48,62.51 136.48,62.51
             127.35,53.30 114.16,49.37 102.00,46.37
             95.84,44.85 89.30,42.61 83.00,44.00
             87.27,47.30 91.17,47.90 96.00,50.04
             106.40,54.64 119.87,61.57 125.00,72.00
             115.03,62.13 117.09,65.42 106.00,60.22
             92.64,53.95 81.06,49.34 66.00,53.00
             71.60,57.00 80.71,58.64 87.00,61.52
             91.56,63.61 96.02,67.48 100.00,70.58
             108.99,77.57 119.71,85.79 121.00,98.00
             115.19,94.44 112.99,90.57 108.00,86.18
             102.43,81.28 96.14,77.93 89.00,76.00
             89.00,76.00 98.00,85.00 98.00,85.00
             89.95,85.63 85.19,81.10 78.00,78.75
             68.64,75.68 53.73,74.26 44.00,76.00
             54.88,83.78 77.79,81.63 86.00,99.00
             86.00,99.00 76.00,91.81 76.00,91.81
             66.50,85.91 40.24,80.26 35.00,94.00
             49.95,94.00 46.54,93.11 61.00,97.00
             50.92,99.86 35.27,96.46 29.00,107.00
             29.00,107.00 46.00,105.87 46.00,105.87
             46.00,105.87 58.00,107.00 58.00,107.00
             58.00,107.00 58.00,109.00 58.00,109.00
             58.00,109.00 47.00,109.83 47.00,109.83
             39.01,110.61 36.75,110.21 31.00,117.00
             31.00,117.00 48.00,117.00 48.00,117.00
             40.64,119.52 31.00,123.32 26.56,130.04
             20.29,139.51 19.40,157.89 27.53,166.54
             32.18,171.49 37.50,173.08 44.00,174.00
             38.87,175.46 28.84,175.10 24.32,172.07
             21.15,169.93 21.63,168.40 17.00,166.00
             18.04,169.12 19.10,173.23 21.42,175.61
             27.04,181.40 41.28,181.12 49.00,183.00
             36.81,189.21 29.72,183.28 17.00,183.00
             23.37,191.90 27.17,194.98 38.00,195.09
             40.64,195.00 53.29,194.47 54.71,195.09
             56.22,195.96 56.28,196.76 57.00,198.00
             49.99,199.60 34.88,203.64 28.00,202.44
             20.43,201.13 10.00,193.21 3.00,191.00
             5.25,198.12 10.51,206.04 18.00,208.35
             20.64,209.17 24.13,208.94 27.00,209.41
             32.86,209.98 39.14,210.59 45.00,209.41
             45.00,209.41 63.00,205.00 63.00,205.00
             52.96,213.14 39.58,215.20 27.00,215.91
             18.51,216.39 10.46,212.39 2.00,212.00
             5.92,216.00 10.87,218.46 16.00,220.60
             16.00,220.60 25.00,224.37 25.00,224.37
             27.54,225.08 29.46,224.91 32.00,225.17
             42.70,226.24 48.42,225.54 59.00,223.54
             59.00,223.54 76.00,219.00 76.00,219.00
             66.56,225.74 56.42,228.26 45.00,228.91
             45.00,228.91 28.00,228.00 28.00,228.00
             16.70,227.98 10.94,223.51 0.00,223.00
             4.99,229.38 10.80,231.34 18.00,234.42
             35.29,241.81 45.76,243.33 64.00,238.14
             64.00,238.14 76.00,234.21 76.00,234.21
             76.00,234.21 86.00,228.00 86.00,228.00
             86.00,228.00 85.00,235.00 85.00,235.00
             91.11,235.00 92.20,234.55 98.00,237.00
             95.85,239.68 93.58,243.03 90.83,245.04
             90.83,245.04 83.00,249.26 83.00,249.26
             79.41,251.11 75.94,253.49 72.00,254.24
             56.48,258.35 40.57,254.34 25.00,254.24
             28.63,259.74 36.80,260.88 43.00,262.58
             65.81,268.81 85.86,262.76 106.00,252.00
             97.99,262.90 79.96,266.98 67.00,267.00
             67.00,267.00 47.00,266.00 47.00,266.00
             55.60,276.35 78.58,274.00 91.00,274.00
             91.00,274.00 64.00,277.25 64.00,277.25
             64.00,277.25 45.00,275.00 45.00,275.00
             53.67,283.66 71.12,286.86 83.00,287.00
             88.81,287.06 97.57,287.40 103.00,286.10
             103.00,286.10 127.00,278.00 127.00,278.00
             118.41,282.89 104.76,288.18 95.00,289.71
             95.00,289.71 74.00,292.00 74.00,292.00
             81.47,295.44 94.70,295.68 103.00,296.04
             103.00,296.04 113.00,296.81 113.00,296.81
             119.33,296.28 127.23,291.64 133.00,288.75
             138.78,285.86 145.56,283.72 149.00,278.00
             150.84,281.52 153.57,288.63 158.83,287.27
             160.40,286.87 164.33,283.23 166.00,282.00
             166.00,282.00 173.00,296.00 173.00,296.00
             173.00,296.00 182.00,289.00 182.00,289.00
             180.33,294.17 173.80,298.17 169.00,300.46
             158.96,305.25 137.37,309.49 126.00,311.00
             132.44,313.75 143.78,313.00 151.00,313.00
             151.00,313.00 139.00,316.21 139.00,316.21
             143.64,317.84 156.77,317.11 162.00,316.21
             169.67,315.41 177.50,315.53 185.00,313.23
             185.00,313.23 212.00,302.00 212.00,302.00
             197.59,317.67 170.07,319.00 150.00,319.00
             163.04,325.02 189.26,323.61 203.00,319.84
             203.00,319.84 236.00,310.00 236.00,310.00
             224.05,318.54 189.49,335.20 175.00,341.00
             175.00,341.00 182.00,342.00 182.00,342.00
             182.00,342.00 198.00,341.37 198.00,341.37
             198.00,341.37 215.00,332.42 215.00,332.42
             215.00,332.42 247.00,314.00 247.00,314.00
             247.00,314.00 236.83,327.19 236.83,327.19
             236.83,327.19 214.00,337.93 214.00,337.93
             214.00,337.93 221.00,337.93 221.00,337.93
             221.00,337.93 228.00,337.93 228.00,337.93
             228.00,337.93 251.00,328.00 251.00,328.00
             249.10,351.24 239.59,371.68 216.00,379.40
             211.84,380.77 189.97,382.96 185.00,383.00
             187.66,386.96 195.46,389.46 200.00,390.91
             205.16,392.55 213.39,392.00 219.00,392.00
             219.00,392.00 253.00,392.00 253.00,392.00
             261.70,391.89 269.68,387.76 278.00,385.63
             293.01,381.79 299.25,382.28 315.00,374.88
             322.30,371.45 337.21,362.19 342.96,356.83
             342.96,356.83 355.00,344.09 355.00,344.09
             355.00,344.09 371.96,329.42 371.96,329.42
             378.26,323.75 381.94,316.06 386.44,309.00
             393.72,297.56 398.02,291.46 404.25,279.00
             404.25,279.00 414.12,260.00 414.12,260.00
             417.39,252.74 425.37,221.90 425.91,214.00
             425.91,214.00 424.00,180.00 424.00,180.00
             423.94,174.50 423.27,155.44 422.07,151.00
             420.88,146.58 416.47,138.44 414.25,134.00
             404.50,114.55 394.06,104.06 379.00,89.00
             379.00,89.00 364.00,74.30 364.00,74.30
             364.00,74.30 350.04,63.39 350.04,63.39
             350.04,63.39 340.99,54.00 340.99,54.00
             340.99,54.00 327.09,40.99 327.09,40.99
             322.33,36.01 312.24,25.31 307.00,21.65
             303.69,19.33 294.23,15.89 290.00,14.20
             279.57,10.03 245.30,1.59 234.00,0.00 Z
           M 151.00,58.00
           C 151.00,58.00 151.00,59.00 151.00,59.00
             151.00,59.00 150.00,58.00 150.00,58.00
             150.00,58.00 151.00,58.00 151.00,58.00 Z
           M 232.00,58.00
           C 232.00,58.00 232.00,59.00 232.00,59.00
             232.00,59.00 231.00,58.00 231.00,58.00
             231.00,58.00 232.00,58.00 232.00,58.00 Z
           M 152.00,59.00
           C 152.00,59.00 152.00,60.00 152.00,60.00
             152.00,60.00 151.00,59.00 151.00,59.00
             151.00,59.00 152.00,59.00 152.00,59.00 Z
           M 233.00,59.00
           C 233.00,59.00 233.00,60.00 233.00,60.00
             233.00,60.00 232.00,59.00 232.00,59.00
             232.00,59.00 233.00,59.00 233.00,59.00 Z
           M 234.00,61.00
           C 234.00,61.00 234.00,62.00 234.00,62.00
             234.00,62.00 233.00,61.00 233.00,61.00
             233.00,61.00 234.00,61.00 234.00,61.00 Z
           M 235.00,62.00
           C 235.00,62.00 235.00,63.00 235.00,63.00
             235.00,63.00 234.00,62.00 234.00,62.00
             234.00,62.00 235.00,62.00 235.00,62.00 Z
           M 222.00,65.00
           C 222.00,65.00 222.00,66.00 222.00,66.00
             222.00,66.00 221.00,65.00 221.00,65.00
             221.00,65.00 222.00,65.00 222.00,65.00 Z
           M 223.00,66.00
           C 223.00,66.00 223.00,67.00 223.00,67.00
             223.00,67.00 222.00,66.00 222.00,66.00
             222.00,66.00 223.00,66.00 223.00,66.00 Z
           M 224.00,67.00
           C 224.00,67.00 224.00,68.00 224.00,68.00
             224.00,68.00 223.00,67.00 223.00,67.00
             223.00,67.00 224.00,67.00 224.00,67.00 Z
           M 225.00,69.00
           C 225.00,69.00 225.00,70.00 225.00,70.00
             225.00,70.00 224.00,69.00 224.00,69.00
             224.00,69.00 225.00,69.00 225.00,69.00 Z
           M 126.00,72.00
           C 126.00,72.00 126.00,73.00 126.00,73.00
             126.00,73.00 125.00,72.00 125.00,72.00
             125.00,72.00 126.00,72.00 126.00,72.00 Z
           M 127.00,73.00
           C 127.00,73.00 127.00,74.00 127.00,74.00
             127.00,74.00 126.00,73.00 126.00,73.00
             126.00,73.00 127.00,73.00 127.00,73.00 Z
           M 145.00,74.00
           C 145.00,74.00 145.00,75.00 145.00,75.00
             145.00,75.00 144.00,74.00 144.00,74.00
             144.00,74.00 145.00,74.00 145.00,74.00 Z
           M 295.00,76.00
           C 295.00,76.00 295.00,77.00 295.00,77.00
             295.00,77.00 294.00,76.00 294.00,76.00
             294.00,76.00 295.00,76.00 295.00,76.00 Z
           M 107.00,251.00
           C 107.00,251.00 107.00,252.00 107.00,252.00
             107.00,252.00 106.00,251.00 106.00,251.00
             106.00,251.00 107.00,251.00 107.00,251.00 Z
           M 118.00,263.00
           C 118.00,263.00 118.00,264.00 118.00,264.00
             118.00,264.00 117.00,263.00 117.00,263.00
             117.00,263.00 118.00,263.00 118.00,263.00 Z
           M 117.00,264.00
           C 117.00,264.00 117.00,265.00 117.00,265.00
             117.00,265.00 116.00,264.00 116.00,264.00
             116.00,264.00 117.00,264.00 117.00,264.00 Z
           M 115.00,265.00
           C 115.00,265.00 115.00,266.00 115.00,266.00
             115.00,266.00 114.00,265.00 114.00,265.00
             114.00,265.00 115.00,265.00 115.00,265.00 Z
           M 114.00,266.00
           C 109.25,271.01 97.84,273.85 91.00,274.00
             91.00,274.00 114.00,266.00 114.00,266.00 Z
           M 129.00,277.00
           C 129.00,277.00 129.00,278.00 129.00,278.00
             129.00,278.00 128.00,277.00 128.00,277.00
             128.00,277.00 129.00,277.00 129.00,277.00 Z
           M 183.00,288.00
           C 183.00,288.00 183.00,289.00 183.00,289.00
             183.00,289.00 182.00,288.00 182.00,288.00
             182.00,288.00 183.00,288.00 183.00,288.00 Z
           M 193.00,299.00
           C 193.00,299.00 193.00,300.00 193.00,300.00
             193.00,300.00 192.00,299.00 192.00,299.00
             192.00,299.00 193.00,299.00 193.00,299.00 Z
           M 190.00,301.00
           C 185.77,305.56 181.23,308.34 175.00,309.00
             175.00,309.00 190.00,301.00 190.00,301.00 Z
           M 213.00,301.00
           C 213.00,301.00 213.00,302.00 213.00,302.00
             213.00,302.00 212.00,301.00 212.00,301.00
             212.00,301.00 213.00,301.00 213.00,301.00 Z
           M 159.00,312.00
           C 159.00,312.00 151.00,313.00 151.00,313.00
             151.00,313.00 159.00,312.00 159.00,312.00 Z
           M 248.00,313.00
           C 248.00,313.00 248.00,314.00 248.00,314.00
             248.00,314.00 247.00,313.00 247.00,313.00
             247.00,313.00 248.00,313.00 248.00,313.00 Z" />
  <path id="bones"
        fill="#844f30" stroke="#844f30" stroke-width="0"
        d="M 181.00,94.00
           C 181.00,94.00 176.00,141.00 176.00,141.00
             176.00,141.00 172.00,141.00 172.00,141.00
             172.00,141.00 179.00,143.00 179.00,143.00
             179.00,143.00 180.00,128.00 180.00,128.00
             180.00,128.00 180.00,119.00 180.00,119.00
             180.00,119.00 181.00,109.00 181.00,109.00
             181.00,109.00 181.00,94.00 181.00,94.00 Z
           M 187.00,94.00
           C 187.00,94.00 186.00,108.00 186.00,108.00
             186.00,108.00 184.98,130.00 184.98,130.00
             184.98,130.00 184.98,145.00 184.98,145.00
             184.98,145.00 187.17,129.00 187.17,129.00
             187.17,129.00 190.00,94.00 190.00,94.00
             190.00,94.00 187.00,94.00 187.00,94.00 Z
           M 201.00,94.00
           C 201.00,94.00 199.00,122.00 199.00,122.00
             199.00,122.00 203.00,94.00 203.00,94.00
             203.00,94.00 201.00,94.00 201.00,94.00 Z
           M 143.00,136.00
           C 147.48,130.10 145.52,125.80 146.17,119.00
             147.07,109.57 148.94,103.51 153.00,95.00
             147.57,96.75 146.16,100.79 144.76,106.00
             142.29,115.16 143.00,126.44 143.00,136.00 Z
           M 165.00,95.00
           C 165.00,95.00 160.09,113.00 160.09,113.00
             160.09,113.00 157.68,128.00 157.68,128.00
             157.68,128.00 157.00,139.00 157.00,139.00
             161.52,137.12 159.75,132.31 160.09,128.00
             160.09,128.00 163.41,109.00 163.41,109.00
             164.60,104.42 166.71,99.66 165.00,95.00 Z
           M 173.00,95.00
           C 173.00,95.00 165.75,128.00 165.75,128.00
             165.75,128.00 165.00,140.00 165.00,140.00
             165.00,140.00 171.00,141.00 171.00,141.00
             171.00,141.00 175.00,95.00 175.00,95.00
             175.00,95.00 173.00,95.00 173.00,95.00 Z
           M 213.00,95.00
           C 213.00,95.00 213.00,104.00 213.00,104.00
             214.31,100.70 214.31,98.30 213.00,95.00 Z
           M 225.00,96.00
           C 225.00,96.00 218.00,152.00 218.00,152.00
             218.00,152.00 225.00,153.00 225.00,153.00
             225.00,153.00 226.00,137.00 226.00,137.00
             226.00,137.00 227.00,120.00 227.00,120.00
             227.00,120.00 228.00,96.00 228.00,96.00
             228.00,96.00 225.00,96.00 225.00,96.00 Z
           M 233.00,97.00
           C 233.00,97.00 232.00,124.00 232.00,124.00
             232.00,124.00 231.00,141.00 231.00,141.00
             231.00,141.00 230.00,154.00 230.00,154.00
             230.00,154.00 234.00,154.00 234.00,154.00
             234.00,154.00 235.00,138.00 235.00,138.00
             235.00,138.00 236.00,113.00 236.00,113.00
             236.00,113.00 237.00,97.00 237.00,97.00
             237.00,97.00 233.00,97.00 233.00,97.00 Z
           M 242.00,98.00
           C 242.00,98.00 241.00,118.00 241.00,118.00
             241.00,118.00 240.00,137.00 240.00,137.00
             240.00,137.00 240.00,148.00 240.00,148.00
             240.00,148.00 242.00,129.00 242.00,129.00
             242.00,129.00 244.00,98.00 244.00,98.00
             244.00,98.00 242.00,98.00 242.00,98.00 Z
           M 138.00,99.00
           C 130.82,116.95 133.18,117.08 134.00,135.00
             134.00,135.00 138.00,135.00 138.00,135.00
             138.00,135.00 137.47,113.00 137.47,113.00
             137.47,113.00 138.00,99.00 138.00,99.00 Z
           M 255.00,100.00
           C 255.00,100.00 254.09,110.00 254.09,110.00
             254.09,110.00 251.96,143.00 251.96,143.00
             251.58,151.74 247.91,155.95 257.00,159.00
             257.00,159.00 257.91,147.00 257.91,147.00
             257.91,147.00 260.09,113.00 260.09,113.00
             260.09,113.00 261.00,100.00 261.00,100.00
             261.00,100.00 255.00,100.00 255.00,100.00 Z
           M 120.00,102.00
           C 114.50,110.15 116.00,121.57 116.00,131.00
             116.00,131.00 118.00,131.00 118.00,131.00
             118.00,131.00 119.17,112.00 119.17,112.00
             119.17,112.00 120.00,102.00 120.00,102.00 Z
           M 194.00,102.00
           C 194.00,102.00 194.00,110.00 194.00,110.00
             194.00,110.00 194.00,102.00 194.00,102.00 Z
           M 128.00,103.00
           C 123.78,111.29 123.03,123.68 123.00,133.00
             123.00,133.00 129.00,134.00 129.00,134.00
             126.92,125.44 127.74,111.52 130.00,103.00
             130.00,103.00 128.00,103.00 128.00,103.00 Z
           M 273.00,103.00
           C 273.00,103.00 272.00,120.00 272.00,120.00
             272.00,120.00 267.00,162.00 267.00,162.00
             267.00,162.00 270.00,162.00 270.00,162.00
             270.00,162.00 273.17,124.00 273.17,124.00
             273.17,124.00 275.00,103.00 275.00,103.00
             275.00,103.00 273.00,103.00 273.00,103.00 Z
           M 110.00,104.00
           C 102.68,108.99 103.00,119.95 103.00,128.00
             103.00,128.00 105.63,117.00 105.63,117.00
             105.63,117.00 110.00,104.00 110.00,104.00 Z
           M 155.00,105.00
           C 155.00,105.00 155.00,106.00 155.00,106.00
             155.00,106.00 156.00,105.00 156.00,105.00
             156.00,105.00 155.00,105.00 155.00,105.00 Z
           M 280.00,105.00
           C 280.00,105.00 275.00,164.00 275.00,164.00
             278.16,161.22 278.75,153.18 279.41,149.00
             281.34,136.78 280.94,132.91 281.00,121.00
             281.00,121.00 282.00,105.00 282.00,105.00
             282.00,105.00 280.00,105.00 280.00,105.00 Z
           M 94.96,128.00
           C 94.96,128.00 99.00,107.00 99.00,107.00
             92.23,109.65 94.52,114.21 94.96,120.00
             94.96,120.00 94.96,128.00 94.96,128.00 Z
           M 154.00,107.00
           C 154.00,107.00 151.00,135.00 151.00,135.00
             152.31,131.70 151.86,129.42 152.29,126.00
             152.94,120.69 155.76,111.82 154.00,107.00 Z
           M 212.00,107.00
           C 212.00,107.00 211.00,136.00 211.00,136.00
             210.93,141.27 208.10,147.72 213.00,151.00
             213.00,151.00 217.00,115.00 217.00,115.00
             217.00,115.00 213.00,115.00 213.00,115.00
             213.00,115.00 212.00,107.00 212.00,107.00 Z
           M 288.00,107.00
           C 285.50,120.90 286.02,122.34 286.00,136.00
             286.00,136.00 283.00,166.00 283.00,166.00
             283.00,166.00 286.00,166.00 286.00,166.00
             286.00,166.00 289.72,123.00 289.72,123.00
             289.72,123.00 289.72,108.69 289.72,108.69
             289.72,108.69 288.00,107.00 288.00,107.00 Z
           M 296.00,110.00
           C 296.00,110.00 291.00,169.00 291.00,169.00
             294.66,168.46 295.76,167.76 298.00,171.00
             298.00,171.00 300.00,149.00 300.00,149.00
             300.00,149.00 301.04,134.00 301.04,134.00
             301.04,134.00 301.04,123.00 301.04,123.00
             301.04,123.00 302.00,111.00 302.00,111.00
             302.00,111.00 296.00,110.00 296.00,110.00 Z
           M 265.00,113.00
           C 265.00,113.00 264.00,134.00 264.00,134.00
             266.43,128.73 268.59,117.87 265.00,113.00 Z
           M 85.00,114.00
           C 80.68,119.12 79.05,121.31 78.00,128.00
             78.58,127.79 79.28,127.85 80.29,127.02
             82.59,125.12 85.69,116.89 85.00,114.00 Z
           M 206.04,114.00
           C 206.04,114.00 202.00,149.00 202.00,149.00
             205.89,147.38 204.75,145.43 205.28,141.00
             205.28,141.00 206.04,125.00 206.04,125.00
             206.39,120.64 207.69,118.31 206.04,114.00 Z
           M 193.04,116.00
           C 193.04,116.00 191.00,146.00 191.00,146.00
             193.73,143.56 192.85,141.42 193.04,138.00
             193.53,131.74 195.32,121.85 193.04,116.00 Z
           M 307.00,118.00
           C 307.00,118.00 305.96,129.00 305.96,129.00
             305.96,129.00 305.96,140.00 305.96,140.00
             305.96,140.00 305.00,155.00 305.00,155.00
             305.00,155.00 304.00,173.00 304.00,173.00
             304.00,173.00 313.00,175.00 313.00,175.00
             313.00,175.00 313.00,156.00 313.00,156.00
             313.00,156.00 313.95,145.00 313.95,145.00
             313.95,145.00 313.95,128.00 313.95,128.00
             313.91,121.99 313.49,119.08 307.00,118.00 Z
           M 66.00,123.00
           C 66.00,123.00 66.00,129.00 66.00,129.00
             72.54,128.45 71.97,126.18 74.00,120.00
             74.00,120.00 66.00,123.00 66.00,123.00 Z
           M 89.00,123.00
           C 89.00,123.00 87.00,128.00 87.00,128.00
             90.00,126.76 90.10,126.01 89.00,123.00 Z
           M 247.00,125.00
           C 247.00,125.00 247.00,130.00 247.00,130.00
             247.00,130.00 247.00,125.00 247.00,125.00 Z
           M 57.00,133.00
           C 55.84,132.38 54.28,131.42 53.00,131.12
             48.09,129.97 39.81,136.67 38.16,141.01
             36.64,144.31 36.37,155.69 38.16,158.69
             39.89,161.12 47.04,162.56 49.44,160.94
             51.09,159.83 51.66,156.82 52.13,155.00
             52.13,155.00 54.21,146.00 54.21,146.00
             54.21,146.00 57.00,133.00 57.00,133.00 Z
           M 319.00,131.00
           C 319.00,131.00 318.00,175.00 318.00,175.00
             318.00,175.00 328.00,176.00 328.00,176.00
             328.00,176.00 327.00,163.00 327.00,163.00
             327.00,163.00 326.15,139.00 326.15,139.00
             326.15,139.00 319.00,131.00 319.00,131.00 Z
           M 56.00,163.00
           C 56.00,163.00 64.00,166.00 64.00,166.00
             64.00,166.00 67.00,134.00 67.00,134.00
             67.00,134.00 62.93,136.42 62.93,136.42
             62.93,136.42 60.13,145.00 60.13,145.00
             60.13,145.00 56.00,163.00 56.00,163.00 Z
           M 73.00,134.00
           C 73.00,134.00 70.58,154.00 70.58,154.00
             70.29,156.15 69.30,166.37 69.77,167.89
             70.60,170.62 72.63,171.16 75.00,172.00
             75.00,172.00 79.00,135.00 79.00,135.00
             79.00,135.00 73.00,134.00 73.00,134.00 Z
           M 79.00,176.00
           C 79.00,176.00 85.00,178.00 85.00,178.00
             85.00,178.00 91.00,134.00 91.00,134.00
             85.33,135.86 84.09,140.51 83.29,146.00
             83.29,146.00 79.00,176.00 79.00,176.00 Z
           M 96.00,134.00
           C 96.00,134.00 90.00,181.00 90.00,181.00
             90.00,181.00 95.00,183.00 95.00,183.00
             95.00,183.00 103.00,135.00 103.00,135.00
             103.00,135.00 96.00,134.00 96.00,134.00 Z
           M 108.00,137.00
           C 108.00,137.00 102.08,173.00 102.08,173.00
             100.20,184.37 98.72,185.56 106.00,189.00
             106.00,189.00 115.00,136.00 115.00,136.00
             115.00,136.00 108.00,137.00 108.00,137.00 Z
           M 120.00,137.00
           C 120.00,137.00 113.08,178.00 113.08,178.00
             110.89,190.98 110.03,191.05 116.00,194.00
             116.00,194.00 124.58,152.00 124.58,152.00
             127.46,138.87 128.15,137.29 120.00,137.00 Z
           M 133.00,139.00
           C 133.00,139.00 123.90,181.00 123.90,181.00
             122.87,185.60 119.45,192.86 123.90,196.00
             123.90,196.00 138.00,139.00 138.00,139.00
             138.00,139.00 133.00,139.00 133.00,139.00 Z
           M 150.00,142.00
           C 150.00,142.00 144.00,183.00 144.00,183.00
             144.00,183.00 142.00,202.00 142.00,202.00
             146.14,199.13 146.44,190.81 147.40,186.00
             147.40,186.00 156.00,143.00 156.00,143.00
             156.00,143.00 150.00,142.00 150.00,142.00 Z
           M 142.00,144.00
           C 142.00,144.00 135.65,170.00 135.65,170.00
             135.65,170.00 129.00,198.00 129.00,198.00
             129.00,198.00 136.00,200.00 136.00,200.00
             136.00,200.00 144.00,144.00 144.00,144.00
             144.00,144.00 142.00,144.00 142.00,144.00 Z
           M 156.00,206.00
           C 156.00,206.00 160.20,183.00 160.20,183.00
             160.20,183.00 163.39,167.00 163.39,167.00
             163.39,167.00 164.80,159.00 164.80,159.00
             165.23,156.77 169.12,143.96 163.22,145.74
             159.87,146.76 158.83,156.83 158.20,160.00
             158.20,160.00 152.40,189.00 152.40,189.00
             151.91,191.47 149.97,199.81 150.38,201.78
             150.97,204.55 153.69,205.15 156.00,206.00 Z
           M 173.00,147.00
           C 173.00,147.00 161.00,207.00 161.00,207.00
             161.00,207.00 165.00,208.00 165.00,208.00
             165.00,208.00 177.00,148.00 177.00,148.00
             177.00,148.00 173.00,147.00 173.00,147.00 Z
           M 182.00,149.00
           C 182.00,149.00 177.60,174.00 177.60,174.00
             177.60,174.00 170.00,210.00 170.00,210.00
             170.00,210.00 173.00,211.00 173.00,211.00
             173.00,211.00 187.00,151.00 187.00,151.00
             187.00,151.00 182.00,149.00 182.00,149.00 Z
           M 239.00,150.00
           C 239.00,150.00 239.00,155.00 239.00,155.00
             239.00,155.00 239.00,150.00 239.00,150.00 Z
           M 179.00,214.00
           C 179.00,214.00 183.00,215.00 183.00,215.00
             183.00,215.00 194.13,167.00 194.13,167.00
             194.13,167.00 196.57,156.11 196.57,156.11
             196.56,154.27 195.56,152.32 193.43,153.40
             190.90,154.69 189.32,165.03 188.65,168.00
             188.65,168.00 179.00,214.00 179.00,214.00 Z
           M 203.00,154.00
           C 203.00,154.00 192.63,196.00 192.63,196.00
             191.10,202.10 187.80,210.98 189.00,217.00
             189.00,217.00 191.00,217.00 191.00,217.00
             191.00,217.00 207.00,155.00 207.00,155.00
             207.00,155.00 203.00,154.00 203.00,154.00 Z
           M 349.00,156.03
           C 346.66,157.28 344.30,158.58 343.06,161.09
             341.43,164.39 343.62,172.89 346.64,175.01
             348.83,176.55 357.97,176.02 361.00,176.00
             366.30,175.96 372.73,173.94 368.25,167.28
             364.76,162.10 355.45,154.91 349.00,156.03 Z
           M 213.00,157.00
           C 213.00,157.00 209.91,166.00 209.91,166.00
             209.91,166.00 200.37,204.00 200.37,204.00
             197.28,216.38 195.16,218.89 203.00,221.00
             203.00,221.00 218.00,158.00 218.00,158.00
             218.00,158.00 213.00,157.00 213.00,157.00 Z
           M 224.00,159.00
           C 224.00,159.00 216.13,189.00 216.13,189.00
             216.13,189.00 209.53,217.83 209.53,217.83
             209.53,217.83 211.00,225.00 211.00,225.00
             211.00,225.00 218.42,194.00 218.42,194.00
             218.42,194.00 226.00,159.00 226.00,159.00
             226.00,159.00 224.00,159.00 224.00,159.00 Z
           M 231.00,161.00
           C 231.00,161.00 220.42,210.00 220.42,210.00
             219.74,213.08 215.92,224.84 218.57,226.77
             223.43,230.30 225.48,215.61 226.13,213.00
             226.13,213.00 239.00,162.00 239.00,162.00
             239.00,162.00 231.00,161.00 231.00,161.00 Z
           M 233.00,233.00
           C 233.00,233.00 239.71,206.00 239.71,206.00
             239.71,206.00 244.37,189.00 244.37,189.00
             244.37,189.00 247.00,179.00 247.00,179.00
             247.63,176.78 249.58,170.02 249.56,168.06
             249.53,165.59 247.90,163.59 245.41,165.08
             242.67,166.71 240.95,176.73 240.13,180.00
             240.13,180.00 230.63,218.00 230.63,218.00
             228.03,228.38 226.49,229.79 233.00,233.00 Z
           M 256.00,166.00
           C 256.00,166.00 238.00,235.00 238.00,235.00
             238.00,235.00 246.00,236.00 246.00,236.00
             246.00,236.00 262.00,167.00 262.00,167.00
             262.00,167.00 256.00,166.00 256.00,166.00 Z
           M 50.00,168.00
           C 50.00,168.00 46.00,178.00 46.00,178.00
             46.00,178.00 54.00,168.00 54.00,168.00
             54.00,168.00 50.00,168.00 50.00,168.00 Z
           M 268.00,169.00
           C 268.00,169.00 251.00,238.00 251.00,238.00
             251.00,238.00 259.00,239.00 259.00,239.00
             259.00,239.00 272.15,188.00 272.15,188.00
             276.28,172.75 278.45,170.52 268.00,169.00 Z
           M 60.00,170.00
           C 56.13,175.48 47.84,181.45 53.00,188.00
             53.00,188.00 60.91,172.22 60.91,172.22
             60.91,172.22 60.00,170.00 60.00,170.00 Z
           M 282.00,172.00
           C 282.00,172.00 264.00,241.00 264.00,241.00
             264.00,241.00 271.00,242.00 271.00,242.00
             271.00,242.00 291.00,174.00 291.00,174.00
             291.00,174.00 282.00,172.00 282.00,172.00 Z
           M 68.00,174.00
           C 65.13,178.30 56.10,190.14 57.75,195.59
             58.19,197.02 59.00,197.23 60.00,198.00
             60.00,198.00 71.00,175.00 71.00,175.00
             71.00,175.00 68.00,174.00 68.00,174.00 Z
           M 297.00,176.00
           C 297.00,176.00 276.00,244.00 276.00,244.00
             276.00,244.00 286.00,247.00 286.00,247.00
             286.00,247.00 309.00,180.00 309.00,180.00
             309.00,180.00 297.00,176.00 297.00,176.00 Z
           M 76.00,177.00
           C 76.00,177.00 64.00,205.00 64.00,205.00
             69.95,198.77 69.22,190.31 81.00,180.00
             81.00,180.00 76.00,177.00 76.00,177.00 Z
           M 315.00,181.00
           C 315.00,181.00 291.00,250.00 291.00,250.00
             291.00,250.00 307.00,255.00 307.00,255.00
             307.00,255.00 325.96,203.00 325.96,203.00
             325.96,203.00 328.00,182.00 328.00,182.00
             328.00,182.00 315.00,181.00 315.00,181.00 Z
           M 324.00,252.00
           C 324.00,252.00 332.00,271.00 332.00,271.00
             333.68,274.18 340.28,281.22 342.99,284.00
             345.48,286.55 348.90,290.55 352.04,292.08
             367.53,299.65 386.72,283.86 395.21,272.00
             403.59,260.30 402.34,256.83 404.61,244.00
             404.61,244.00 406.91,231.00 406.91,231.00
             407.35,223.44 403.62,215.02 401.05,208.00
             399.39,203.44 397.91,196.89 394.47,193.49
             394.47,193.49 389.42,189.59 389.42,189.59
             387.01,187.46 385.01,184.76 382.00,183.40
             380.00,182.50 365.89,181.00 363.00,181.00
             360.38,181.00 356.55,180.88 354.09,181.54
             352.14,182.07 350.48,183.09 348.85,184.26
             340.76,190.04 343.35,196.51 341.62,205.00
             341.62,205.00 338.66,214.00 338.66,214.00
             338.66,214.00 324.00,252.00 324.00,252.00 Z
           M 72.00,215.00
           C 72.00,215.00 79.52,196.00 79.52,196.00
             79.52,196.00 88.00,184.00 88.00,184.00
             79.89,186.38 76.07,194.79 72.86,202.00
             71.98,203.98 70.13,207.93 70.18,210.00
             70.24,211.92 71.18,213.35 72.00,215.00 Z
           M 93.00,187.00
           C 88.07,193.98 85.11,195.12 83.00,204.00
             83.00,204.00 97.00,190.00 97.00,190.00
             97.00,190.00 93.00,187.00 93.00,187.00 Z
           M 101.00,192.00
           C 97.31,199.17 91.28,200.11 88.00,210.00
             88.00,210.00 98.01,200.00 98.01,200.00
             98.01,200.00 102.69,195.05 102.69,195.05
             102.69,195.05 101.00,192.00 101.00,192.00 Z
           M 91.00,218.00
           C 91.00,218.00 113.00,199.00 113.00,199.00
             109.02,197.32 107.05,199.85 104.00,202.43
             98.06,207.45 94.80,211.24 91.00,218.00 Z
           M 120.00,201.00
           C 113.88,205.47 105.55,210.11 102.00,217.00
             106.48,214.42 119.93,206.14 120.00,201.00 Z
           M 127.00,204.00
           C 127.00,204.00 127.00,205.00 127.00,205.00
             127.00,205.00 128.00,204.00 128.00,204.00
             128.00,204.00 127.00,204.00 127.00,204.00 Z
           M 123.00,219.00
           C 123.00,219.00 137.00,208.00 137.00,208.00
             131.44,207.04 125.55,214.68 123.00,219.00 Z
           M 81.00,208.00
           C 81.00,208.00 81.00,209.00 81.00,209.00
             81.00,209.00 82.00,208.00 82.00,208.00
             82.00,208.00 81.00,208.00 81.00,208.00 Z
           M 141.00,209.00
           C 139.14,215.26 133.91,218.05 129.00,222.00
             123.13,226.72 110.50,237.55 106.00,243.00
             112.01,243.07 115.67,238.16 120.00,234.42
             128.71,226.90 137.44,218.41 147.00,212.00
             147.00,212.00 141.00,209.00 141.00,209.00 Z
           M 80.00,210.00
           C 80.00,210.00 80.00,211.00 80.00,211.00
             80.00,211.00 81.00,210.00 81.00,210.00
             81.00,210.00 80.00,210.00 80.00,210.00 Z
           M 119.00,212.00
           C 111.49,218.45 98.09,225.37 94.00,234.00
             100.98,231.27 106.18,224.64 112.00,219.75
             114.70,217.48 118.02,215.47 119.00,212.00 Z
           M 151.00,213.00
           C 149.38,218.94 144.60,220.86 140.00,224.61
             140.00,224.61 114.00,247.00 114.00,247.00
             117.69,253.08 123.43,246.23 127.00,242.91
             135.41,235.09 148.33,223.72 154.00,214.00
             154.00,214.00 151.00,213.00 151.00,213.00 Z
           M 159.00,216.00
           C 155.99,224.83 139.12,239.07 132.00,245.99
             128.20,249.68 125.37,251.21 123.00,256.00
             130.26,253.87 134.09,247.25 139.09,242.01
             147.19,233.53 157.09,226.65 164.00,217.00
             164.00,217.00 159.00,216.00 159.00,216.00 Z
           M 132.00,262.00
           C 141.52,255.18 153.30,239.92 162.01,231.00
             165.38,227.55 169.95,220.85 175.00,224.00
             174.89,216.97 167.21,222.91 165.00,225.02
             165.00,225.02 152.00,237.96 152.00,237.96
             146.42,243.30 145.32,243.65 139.72,250.00
             136.14,254.05 132.05,256.37 132.00,262.00 Z
           M 182.00,225.00
           C 182.00,225.00 164.58,251.00 164.58,251.00
             164.58,251.00 149.00,273.00 149.00,273.00
             155.30,273.51 156.79,269.78 160.00,265.00
             160.00,265.00 177.80,238.00 177.80,238.00
             180.06,234.16 183.37,229.56 182.00,225.00 Z
           M 113.00,226.00
           C 113.00,226.00 105.00,235.00 105.00,235.00
             108.31,232.63 111.93,230.07 113.00,226.00 Z
           M 189.00,226.00
           C 183.75,245.15 169.36,260.44 159.00,277.00
             165.38,277.80 167.80,271.67 171.14,267.00
             179.95,254.69 187.01,241.91 193.00,228.00
             193.00,228.00 189.00,226.00 189.00,226.00 Z
           M 172.00,229.00
           C 172.00,229.00 138.00,264.97 138.00,264.97
             141.37,268.79 143.06,268.81 146.68,264.97
             146.68,264.97 164.87,241.00 164.87,241.00
             167.50,237.50 171.39,233.40 172.00,229.00 Z
           M 198.00,230.00
           C 194.90,240.89 185.58,255.07 180.00,265.00
             188.06,258.95 192.87,249.84 197.25,241.00
             199.35,236.75 202.42,233.44 198.00,230.00 Z
           M 207.00,234.00
           C 202.69,244.00 198.03,253.47 191.19,262.00
             185.93,268.57 176.67,277.16 173.00,284.00
             185.42,275.11 195.42,261.68 203.66,249.00
             206.56,244.53 212.50,238.19 207.00,234.00 Z
           M 216.00,238.00
           C 216.00,238.00 207.00,255.00 207.00,255.00
             207.00,255.00 221.00,241.00 221.00,241.00
             221.00,241.00 216.00,238.00 216.00,238.00 Z
           M 184.00,288.00
           C 198.37,280.99 208.62,267.93 220.00,257.04
             220.00,257.04 233.28,245.02 233.28,245.02
             234.73,244.19 235.48,244.26 237.00,244.00
             228.01,240.16 225.80,243.67 219.87,250.09
             219.87,250.09 201.00,271.00 201.00,271.00
             201.00,271.00 184.00,288.00 184.00,288.00 Z
           M 238.00,244.00
           C 237.03,250.02 234.46,251.14 231.00,256.00
             236.02,252.41 239.06,249.47 242.00,244.00
             242.00,244.00 238.00,244.00 238.00,244.00 Z
           M 247.00,246.00
           C 244.48,253.40 237.61,258.10 232.00,263.17
             232.00,263.17 224.00,270.70 224.00,270.70
             224.00,270.70 213.00,279.29 213.00,279.29
             213.00,279.29 198.00,292.00 198.00,292.00
             202.85,292.55 209.94,286.68 214.00,284.00
             229.29,273.93 231.36,273.90 243.58,259.00
             247.04,254.77 250.48,251.32 252.00,246.00
             252.00,246.00 247.00,246.00 247.00,246.00 Z
           M 257.00,248.00
           C 255.99,254.38 250.93,259.18 246.92,264.00
             235.79,277.38 224.06,285.54 209.00,294.00
             213.64,294.61 220.93,289.23 225.00,286.80
             225.00,286.80 238.00,278.48 238.00,278.48
             243.88,273.86 260.58,256.17 265.00,250.00
             265.00,250.00 257.00,248.00 257.00,248.00 Z
           M 270.00,252.00
           C 267.72,256.82 264.06,259.98 260.58,264.00
             247.91,278.59 242.15,283.31 226.00,293.00
             232.82,294.44 237.14,290.14 242.00,286.08
             242.00,286.08 259.00,270.28 259.00,270.28
             264.52,265.42 271.84,259.68 275.00,253.00
             275.00,253.00 270.00,252.00 270.00,252.00 Z
           M 280.00,255.00
           C 278.27,260.89 273.29,264.79 269.00,268.99
             260.84,276.96 247.80,289.42 239.00,296.00
             243.98,296.67 247.85,292.52 252.00,290.24
             259.83,285.93 257.76,285.85 264.00,280.28
             271.88,273.26 280.86,264.58 287.00,256.00
             287.00,256.00 280.00,255.00 280.00,255.00 Z
           M 227.00,258.00
           C 227.00,258.00 220.00,266.00 220.00,266.00
             223.10,263.77 225.99,261.81 227.00,258.00 Z
           M 294.00,258.00
           C 294.00,258.00 274.00,278.99 274.00,278.99
             274.00,278.99 251.00,303.00 251.00,303.00
             251.00,303.00 269.00,286.00 269.00,286.00
             269.00,286.00 283.91,272.00 283.91,272.00
             283.91,272.00 294.00,258.00 294.00,258.00 Z
           M 300.00,259.00
           C 298.25,265.01 291.39,272.49 286.99,277.00
             278.01,286.19 263.25,297.88 256.00,308.00
             270.84,298.62 277.40,290.30 289.02,278.00
             294.82,271.86 300.61,267.79 304.00,260.00
             304.00,260.00 300.00,259.00 300.00,259.00 Z
           M 318.18,272.65
           C 312.59,276.28 312.31,282.19 310.19,288.00
             309.24,290.60 307.56,293.86 309.64,296.35
             312.55,299.84 322.62,301.19 327.00,300.96
             328.90,300.86 330.19,300.69 332.00,300.03
             349.05,293.83 328.26,274.11 321.97,272.65
             320.10,272.09 319.84,272.45 318.18,272.65 Z
           M 295.00,280.00
           C 283.97,291.56 271.66,306.80 257.00,314.00
             262.08,315.01 266.90,311.61 271.00,308.92
             279.72,303.20 297.23,292.35 295.00,280.00 Z
           M 344.00,292.00
           C 344.00,292.00 344.00,293.00 344.00,293.00
             344.00,293.00 345.00,292.00 345.00,292.00
             345.00,292.00 344.00,292.00 344.00,292.00 Z
           M 254.00,308.00
           C 254.00,308.00 254.00,309.00 254.00,309.00
             254.00,309.00 255.00,308.00 255.00,308.00
             255.00,308.00 254.00,308.00 254.00,308.00 Z" />
</svg>
