<?xml version="1.0" encoding="UTF-8" standalone="no"?>
<!DOCTYPE svg PUBLIC "-//W3C//DTD SVG 20010904//EN"
              "http://www.w3.org/TR/2001/REC-SVG-20010904/DTD/svg10.dtd">

<svg xmlns="http://www.w3.org/2000/svg" width="36px" height="40px"
     viewBox="0 0 75 83">
  <path id="spade"
        fill="#777777" stroke="#777777" stroke-width="0"
        d="M 44.06,64.76
           C 44.06,64.76 44.30,63.36 44.30,63.36
             43.14,63.08 39.12,62.14 39.27,64.30
             39.32,65.06 40.24,65.86 40.78,66.33
             40.78,66.33 45.24,69.97 45.24,69.97
             49.50,73.56 54.56,77.50 59.53,80.02
             62.23,81.38 65.12,82.60 68.20,82.53
             68.87,82.51 69.48,82.47 70.06,82.10
             71.55,81.14 72.35,78.15 72.41,76.45
             72.60,71.79 70.30,68.18 66.79,65.32
             66.79,65.32 60.10,59.62 60.10,59.62
             60.10,59.62 58.63,58.12 58.63,58.12
             57.42,57.13 54.36,59.64 53.62,60.60
             53.28,61.04 52.93,61.89 52.35,62.07
             51.77,62.26 51.10,61.65 50.78,61.23
             50.78,61.23 48.52,56.58 48.52,56.58
             47.69,56.87 44.78,57.83 44.43,58.55
             43.91,59.63 44.77,63.43 44.57,64.06
             44.45,64.46 44.32,64.49 44.06,64.76 Z" />
  <path id="handle"
        fill="#844f30" stroke="#844f30" stroke-width="0"
        d="M 48.28,57.05
           C 47.74,55.65 44.76,51.35 43.76,49.80
             43.76,49.80 33.47,33.90 33.47,33.90
             33.47,33.90 23.20,18.00 23.20,18.00
             22.68,17.22 21.81,16.10 21.63,15.20
             21.63,15.20 21.13,8.42 21.13,8.42
             21.02,7.25 21.26,6.74 20.69,5.61
             20.19,4.59 18.08,1.20 17.10,0.84
             16.34,0.57 15.08,1.06 14.30,1.26
             14.30,1.26 8.67,2.57 8.67,2.57
             7.64,2.78 4.01,3.33 3.38,3.88
             3.01,4.20 2.82,4.69 2.66,5.14
             2.48,5.67 2.34,6.22 2.47,6.78
             2.67,7.61 3.76,8.91 4.32,9.59
             5.30,10.78 6.63,12.48 7.97,13.23
             10.08,14.40 14.99,16.04 16.60,17.58
             17.24,18.20 18.50,20.20 19.06,21.04
             19.06,21.04 23.44,27.59 23.44,27.59
             23.44,27.59 37.58,48.86 37.58,48.86
             37.58,48.86 42.20,55.88 42.20,55.88
             42.60,56.51 43.63,58.32 44.34,58.50
             45.05,58.68 47.56,57.42 48.28,57.05 Z
           M 6.56,6.78
           C 6.86,6.49 6.88,6.39 7.29,6.20
             7.29,6.20 13.83,4.82 13.83,4.82
             14.61,4.66 15.63,4.31 16.33,4.82
             16.78,5.15 17.28,6.04 17.56,6.55
             18.40,8.08 20.59,11.71 18.23,12.94
             16.93,13.62 15.11,12.67 13.83,12.21
             13.83,12.21 10.08,10.79 10.08,10.79
             8.41,10.00 7.65,8.19 6.56,6.78 Z" />
  <path id="shade"
        fill="black" stroke="black" stroke-width="0"
        d="M 48.28,58.68
           C 48.28,60.05 49.38,61.77 50.39,62.66
             50.39,61.30 49.29,59.57 48.28,58.68 Z
           M 56.48,59.15
           C 55.50,59.96 52.63,61.95 52.42,63.13
             52.24,64.16 53.35,65.20 53.96,65.93
             53.96,65.93 59.06,72.01 59.06,72.01
             59.06,72.01 48.98,65.98 48.98,65.98
             48.98,65.98 46.41,64.52 46.41,64.52
             44.94,63.94 41.58,63.41 40.08,63.83
             41.18,64.64 44.38,64.48 46.41,65.35
             46.41,65.35 56.48,71.36 56.48,71.36
             57.77,72.12 59.70,73.64 61.17,73.65
             61.17,73.65 55.06,66.17 55.06,66.17
             54.49,65.48 53.03,64.07 53.23,63.15
             53.43,62.23 55.90,60.74 56.95,59.39
             56.95,59.39 56.48,59.15 56.48,59.15 Z
           M 59.30,72.01
           C 59.30,72.01 59.30,72.25 59.30,72.25
             59.30,72.25 59.06,72.01 59.06,72.01
             59.06,72.01 59.30,72.01 59.30,72.01 Z" />
</svg>
